<svg width="108" height="108" viewBox="0 0 108 108" fill="none" xmlns="http://www.w3.org/2000/svg">
<g clip-path="url(#clip0)">
<circle cx="62.2829" cy="97.3503" r="62.2829" fill="#CEDFF4"/>
<path d="M101.976 0H6.02389C4.83568 0 3.8725 0.963179 3.8725 2.15139V105.849C3.8725 107.037 4.83568 108 6.02389 108H101.976C103.164 108 104.127 107.037 104.127 105.849V2.15139C104.127 0.963179 103.164 0 101.976 0ZM99.8247 103.697H8.17529V4.30279H99.8247V103.697Z" fill="#508BE2"/>
<path d="M29.5816 36.0359C35.8097 36.0359 40.8764 30.9692 40.8764 24.7411C40.8764 18.513 35.8097 13.4463 29.5816 13.4463C23.3536 13.4463 18.2868 18.513 18.2868 24.7411C18.2868 30.9692 23.3536 36.0359 29.5816 36.0359ZM29.5816 17.7491C33.4369 17.7491 36.5737 20.8858 36.5737 24.7411C36.5737 28.5964 33.4369 31.7331 29.5816 31.7331C25.7263 31.7331 22.5896 28.5964 22.5896 24.7411C22.5896 20.8858 25.7263 17.7491 29.5816 17.7491Z" fill="#508BE2"/>
<path d="M48.6215 26.8926H87.5617C88.7499 26.8926 89.7131 25.9295 89.7131 24.7412C89.7131 23.553 88.7499 22.5898 87.5617 22.5898H48.6215C47.4333 22.5898 46.4701 23.553 46.4701 24.7412C46.4701 25.9295 47.4333 26.8926 48.6215 26.8926Z" fill="#508BE2"/>
<path d="M87.5617 52.0635H79.6016C78.4134 52.0635 77.4502 53.0267 77.4502 54.2149C77.4502 55.4031 78.4134 56.3663 79.6016 56.3663H87.5617C88.75 56.3663 89.7131 55.4031 89.7131 54.2149C89.7131 53.0267 88.75 52.0635 87.5617 52.0635Z" fill="#508BE2"/>
<path d="M29.5816 65.5101C35.0739 65.5101 39.6607 61.5689 40.6684 56.3666H71.4262C72.6145 56.3666 73.5776 55.4034 73.5776 54.2152C73.5776 53.027 72.6145 52.0638 71.4262 52.0638H40.6684C39.6607 46.8616 35.0739 42.9204 29.5816 42.9204C23.3536 42.9204 18.2868 47.9872 18.2868 54.2152C18.2868 60.4433 23.3536 65.5101 29.5816 65.5101ZM29.5816 47.2232C33.4369 47.2232 36.5737 50.3599 36.5737 54.2152C36.5737 58.0705 33.4369 61.2073 29.5816 61.2073C25.7263 61.2073 22.5896 58.0705 22.5896 54.2152C22.5896 50.3599 25.7263 47.2232 29.5816 47.2232Z" fill="#508BE2"/>
<path d="M29.5816 94.5535C35.0739 94.5535 39.6607 90.6124 40.6684 85.4101H87.5617C88.7499 85.4101 89.7131 84.4469 89.7131 83.2587C89.7131 82.0705 88.7499 81.1073 87.5617 81.1073H40.6684C39.6607 75.905 35.0739 71.9639 29.5816 71.9639C23.3536 71.9639 18.2868 77.0306 18.2868 83.2587C18.2868 89.4867 23.3536 94.5535 29.5816 94.5535ZM29.5816 76.2667C33.4369 76.2667 36.5737 79.4034 36.5737 83.2587C36.5737 87.114 33.4369 90.2507 29.5816 90.2507C25.7263 90.2507 22.5896 87.114 22.5896 83.2587C22.5896 79.4034 25.7263 76.2667 29.5816 76.2667Z" fill="#508BE2"/>
</g>
<defs>
<clipPath id="clip0">
<rect width="108" height="108" fill="white"/>
</clipPath>
</defs>
</svg>
