<svg width="108" height="108" viewBox="0 0 108 108" fill="none" xmlns="http://www.w3.org/2000/svg">
  <g clip-path="url(#clip0)">
    <ellipse cx="54" cy="45.2461" rx="46.4062" ry="61.0664" fill="#CEDFF4"/>
    <path d="M82.3922 59.4845C81.5244 59.4845 80.7231 58.9317 80.4178 58.1183C80.1128 57.3053 80.3472 56.362 81.0013 55.7896C81.6746 55.2004 82.6698 55.1055 83.4448 55.5497C84.1966 55.9809 84.6164 56.8639 84.4721 57.7196C84.3027 58.7247 83.4132 59.4845 82.3922 59.4845Z" fill="#508BE2"/>
    <path d="M70.2901 97.5249H21.8494C20.6844 97.5249 19.74 96.5805 19.74 95.4155C19.74 94.2505 20.6844 93.3062 21.8494 93.3062H70.2901C71.4551 93.3062 72.3995 94.2505 72.3995 95.4155C72.3995 96.5805 71.4551 97.5249 70.2901 97.5249Z" fill="#508BE2"/>
    <path d="M37.9681 48.7946C36.8031 48.7946 35.8588 47.8502 35.8588 46.6852V43.9131C35.8588 42.7481 36.8031 41.8037 37.9681 41.8037C39.1331 41.8037 40.0775 42.7481 40.0775 43.9131V46.6852C40.0775 47.8502 39.1331 48.7946 37.9681 48.7946Z" fill="#508BE2"/>
    <path d="M54.1714 48.7946C53.0064 48.7946 52.062 47.8502 52.062 46.6852V43.9131C52.062 42.7481 53.0064 41.8037 54.1714 41.8037C55.3364 41.8037 56.2808 42.7481 56.2808 43.9131V46.6852C56.2808 47.8502 55.3364 48.7946 54.1714 48.7946Z" fill="#508BE2"/>
    <path d="M46.0736 58.1003C44.356 58.1003 42.7545 57.1762 41.8941 55.6884C41.3109 54.6799 41.6555 53.3896 42.664 52.8064C43.6723 52.2227 44.9628 52.5678 45.5461 53.5763C45.5876 53.6478 45.7481 53.8815 46.0736 53.8815C46.3993 53.8815 46.5598 53.6478 46.6014 53.5763C47.1846 52.5678 48.4751 52.2232 49.4834 52.8064C50.4919 53.3896 50.8364 54.6799 50.2531 55.6884C49.3927 57.176 47.7913 58.1003 46.0736 58.1003Z" fill="#508BE2"/>
    <path d="M94.6458 0H14.0645C10.5213 0 7.63867 2.88267 7.63867 6.42579V101.574C7.63867 105.117 10.5213 108 14.0645 108H93.9353C97.4784 108 100.361 105.118 100.361 101.574V5.71556C100.361 2.56395 97.7972 0 94.6458 0V0ZM71.4979 7.20183L77.2989 13.0026H71.4979V7.20183ZM96.1426 101.574C96.1426 102.791 95.1524 103.781 93.9355 103.781H84.1103C84.3628 103.093 84.5007 102.349 84.5007 101.574V68.6116C84.5007 67.4466 83.5564 66.5023 82.3913 66.5023C81.2263 66.5023 80.282 67.4466 80.282 68.6116V101.574C80.282 102.791 79.292 103.781 78.0749 103.781H14.0645C12.8476 103.781 11.8574 102.791 11.8574 101.574V6.42579C11.8574 5.20889 12.8476 4.21875 14.0645 4.21875H67.2791V15.1122C67.2791 16.2772 68.2235 17.2216 69.3885 17.2216H80.282V46.7151C80.282 47.8801 81.2263 48.8244 82.3913 48.8244C83.5564 48.8244 84.5007 47.8801 84.5007 46.7151V15.1122C84.5007 14.5576 84.2752 14.0128 83.8829 13.6207L74.4812 4.21875H94.6458C95.4712 4.21875 96.1426 4.89016 96.1426 5.71556V101.574Z" fill="#508BE2"/>
    <path d="M64.3874 67.5824H58.9629C58.9362 67.4796 58.9013 67.3786 58.8589 67.2799C58.6347 66.7608 58.2116 66.3535 57.6842 66.1493L52.8139 64.2633C54.2599 63.6309 55.9602 62.7249 57.5606 61.5548C61.7903 58.4629 64.1206 54.507 64.3317 50.0794C65.4016 49.8626 66.3793 49.3283 67.1568 48.5227C68.1934 47.4486 68.735 46.0343 68.6819 44.5402C68.6123 42.5795 67.5131 40.9026 65.9034 39.9991C66.9478 37.5299 68.2263 33.3344 68.2273 27.5886C68.2279 24.719 67.4854 21.6522 66.0207 18.4738C65.4569 17.2502 64.8941 16.2581 64.5211 15.6415C63.7371 14.3447 63.5422 14.1599 63.1427 13.9256C62.3886 13.4834 61.44 13.552 60.7574 14.0981L60.1898 14.5523C56.8673 17.2111 56.0659 17.8532 48.0653 15.6677C42.4446 13.4079 38.7625 15.5103 35.7999 17.2016C34.0582 18.196 32.5563 19.0539 30.841 18.9957C29.1444 18.9377 27.7077 19.5935 26.6849 20.8937C24.9096 23.1494 24.5008 27.334 25.4346 33.6866C25.7844 36.066 26.2543 38.269 26.6159 39.8036C24.8008 40.645 23.5324 42.4283 23.4573 44.54C23.4044 46.0341 23.9458 47.4484 24.9824 48.5225C25.7318 49.2989 26.6676 49.8233 27.6925 50.0545C27.8969 54.4735 30.2269 58.4317 34.4621 61.5359C36.0895 62.7285 37.8146 63.6471 39.2719 64.2835L34.4552 66.1488C33.928 66.353 33.5047 66.7603 33.2805 67.2795C33.2378 67.3782 33.2033 67.4792 33.1765 67.582H27.7512C23.3337 67.582 19.7397 71.1759 19.7397 75.5934V87.1608C19.7397 88.3258 20.6841 89.2701 21.8491 89.2701H70.2899C71.4549 89.2701 72.3992 88.3258 72.3992 87.1608V75.5938C72.3994 71.1765 68.8053 67.5824 64.3874 67.5824ZM51.9372 68.4478L54.1609 69.3091L52.1518 74.2545L49.1048 70.5361L51.9372 68.4478ZM30.0004 23.5028C30.1603 23.2996 30.3109 23.1984 30.6958 23.2121C33.6057 23.311 35.8828 22.0123 37.8916 20.8654C40.6339 19.2996 42.8005 18.0625 46.5845 19.6198C46.6642 19.6525 46.7461 19.6806 46.8294 19.7034C55.0984 21.9705 57.6872 21.6562 61.5031 18.8649C62.5681 20.8431 64.0092 24.155 64.0086 27.588C64.0079 31.7681 63.2389 34.9813 62.4892 37.1211L57.139 29.2067C56.7392 28.6155 56.0788 28.2786 55.3911 28.2786C55.1865 28.2786 54.9794 28.3086 54.7763 28.3706C53.8905 28.6406 53.2845 29.4565 53.282 30.3825C53.2792 31.4222 50.9944 32.0384 48.873 32.1708C47.0157 32.2864 37.0354 31.9582 33.3467 31.8219C33.3207 31.8211 33.2946 31.8205 33.2686 31.8205C31.8151 31.8205 30.7311 32.9357 29.8312 34.4679C29.7532 34.0125 29.6783 33.5461 29.6089 33.0736C28.5658 25.98 29.6447 23.9546 30.0004 23.5028ZM31.8967 49.4156C31.8967 49.2646 31.8805 49.114 31.8484 48.9663L31.5571 47.6304C31.3459 46.6614 30.4881 45.9704 29.496 45.9704H28.9054C28.5679 45.9704 28.2528 45.8364 28.0182 45.5934C27.8824 45.4529 27.6573 45.1485 27.6735 44.6904C27.6967 44.0365 28.2852 43.5045 28.9856 43.5045C29.0248 43.5045 29.0636 43.5032 29.1024 43.5011C29.1187 43.5017 29.1347 43.5036 29.1511 43.5041C30.0928 43.522 30.9154 42.9282 31.201 42.0419C32.0037 39.5503 33.1448 36.9608 33.8131 36.0605C36.6871 36.1639 46.9488 36.5185 49.136 36.3813C52.326 36.1822 54.3135 35.3731 55.5451 34.3819L61.085 42.5764C61.4769 43.1562 62.1308 43.5036 62.8305 43.5043H62.8324C62.886 43.5043 62.9393 43.5015 62.9923 43.4975C63.0456 43.5015 63.0994 43.5043 63.1538 43.5043C63.8542 43.5043 64.4427 44.0363 64.4659 44.6902C64.4821 45.1481 64.2568 45.4525 64.1212 45.5932C63.8866 45.8362 63.5715 45.9701 63.2338 45.9701H62.5293C61.5374 45.9701 60.6793 46.6612 60.4682 47.6304L60.1771 48.9663C60.145 49.114 60.1288 49.2646 60.1288 49.4154C60.1288 57.218 50.4044 60.9011 49.0356 61.1479C48.4412 61.2329 47.9111 61.5675 47.5784 62.0674C47.2458 62.5673 47.142 63.1852 47.2928 63.7665L47.9174 66.1704L46.0698 67.5324L44.1264 66.0997L44.7325 63.7667C44.8835 63.1856 44.7882 62.5688 44.4555 62.0689C44.1229 61.569 43.6014 61.2359 43.0068 61.1509C41.6222 60.899 31.8967 57.2011 31.8967 49.4156ZM40.2019 68.4478L43.0346 70.5361L39.9874 74.2545L37.9785 69.3091L40.2019 68.4478ZM68.1807 85.0516H23.9587V75.5936C23.9587 73.5023 25.6599 71.8009 27.7514 71.8009H34.4372L37.415 79.1308C37.6952 79.8203 38.3176 80.311 39.0534 80.4226C39.1591 80.4386 39.2645 80.4464 39.3696 80.4464C39.9961 80.4464 40.5968 80.1669 41.001 79.6739L46.0698 73.4884L51.1386 79.6739C51.5426 80.1669 52.1435 80.4464 52.77 80.4464C52.8749 80.4464 52.9805 80.4386 53.0862 80.4226C53.822 80.3112 54.4444 79.8203 54.7246 79.1308L57.7024 71.8009H64.3876C66.4793 71.8009 68.1807 73.5026 68.1807 75.594V85.0516Z" fill="#508BE2"/>
  </g>
  <defs>
    <clipPath id="clip0">
      <rect width="108" height="108" fill="white"/>
    </clipPath>
  </defs>
</svg>
