<svg width="108" height="108" viewBox="0 0 108 108" fill="none" xmlns="http://www.w3.org/2000/svg">
<g clip-path="url(#clip0)">
<ellipse cx="31.2188" cy="60.0117" rx="43.875" ry="47.9883" fill="#CEDFF4"/>
<path d="M83.653 55.9699C81.1628 55.9699 78.8109 54.8739 77.1833 52.9504C75.6899 51.185 74.9678 48.9345 75.1406 46.6606H61.7085C60.5437 46.6606 59.5991 45.7163 59.5991 44.5513V30.3261C59.5991 29.7 59.8771 29.1062 60.3583 28.7054C60.8392 28.3046 61.4744 28.1386 62.0892 28.2513L62.2156 28.2745C63.4844 28.5069 64.7802 28.1656 65.7709 27.3396C66.7619 26.5134 67.3304 25.2996 67.3304 24.0093C67.3304 22.7192 66.7621 21.5057 65.7711 20.6797C64.7804 19.8539 63.4842 19.5134 62.2152 19.7454L62.089 19.7686C61.4729 19.8815 60.839 19.7151 60.3583 19.3143C59.8776 18.9135 59.5993 18.3199 59.5993 17.6939V2.10938C59.5993 0.944367 60.5439 0 61.7087 0H96.7018C101.972 0 106.26 4.28773 106.26 9.55821V44.5513C106.26 45.7163 105.316 46.6606 104.151 46.6606H92.17C92.3685 48.8846 91.6914 51.1013 90.2597 52.8447C88.6591 54.7935 86.2964 55.9322 83.777 55.9691C83.7356 55.9697 83.6943 55.9699 83.653 55.9699ZM63.8181 42.4419H77.6216C78.2475 42.4419 78.841 42.7199 79.242 43.2006C79.6426 43.6814 79.8095 44.3152 79.6966 44.931L79.4091 46.5022C79.1657 47.833 79.5283 49.19 80.4041 50.2253C81.2523 51.2276 82.4301 51.7668 83.7154 51.7506C84.9911 51.732 86.1882 51.1547 86.9995 50.1671C87.8103 49.1797 88.1434 47.8925 87.9133 46.6355L87.6015 44.9307C87.4889 44.315 87.6555 43.6811 88.0563 43.2004C88.4571 42.7197 89.0506 42.4417 89.6765 42.4417H102.041V9.55821C102.041 6.61395 99.6458 4.21875 96.7018 4.21875H63.8181V15.4938C65.5115 15.656 67.1332 16.323 68.4722 17.4393C70.4276 19.0692 71.5489 21.4639 71.5489 24.0093C71.5489 26.5549 70.4276 28.9499 68.4722 30.5798C67.133 31.6963 65.5115 32.3635 63.8181 32.5259V42.4419Z" fill="#508BE2"/>
<path d="M88.7332 73.1953C89.8982 73.1953 90.8426 72.2509 90.8426 71.0859V63.4487C90.8426 62.2837 89.8982 61.3394 88.7332 61.3394H74.2593C73.6334 61.3394 73.0399 61.6174 72.6391 62.0981C72.2383 62.5788 72.0716 63.2127 72.1843 63.8284L72.4963 65.5332C72.7264 66.7902 72.3933 68.0773 71.5823 69.0647C70.771 70.0525 69.5739 70.6297 68.2984 70.6482C67.0117 70.6626 65.8351 70.1253 64.9871 69.1229C64.1113 68.0877 63.7487 66.7307 63.9921 65.4001L64.2796 63.8286C64.3923 63.2129 64.2256 62.579 63.825 62.0981C63.4243 61.6174 62.8305 61.3394 62.2046 61.3394H48.4009V51.4234C50.0945 51.261 51.716 50.594 53.0552 49.4775C55.0106 47.8474 56.1317 45.4526 56.1317 42.907C56.1317 40.3614 55.0104 37.9666 53.055 36.3367C51.7158 35.2204 50.0943 34.5535 48.4009 34.3912V21.0068C48.4009 19.8418 47.4565 18.8975 46.2915 18.8975H11.2984C6.02796 18.8975 1.74023 23.1852 1.74023 28.4557V98.4418C1.74023 103.712 6.02796 108 11.2984 108H81.2846C86.5548 108 90.8428 103.712 90.8428 98.4418V92.3202C90.8428 91.1552 89.8984 90.2108 88.7334 90.2108C87.5686 90.2108 86.624 91.1552 86.624 92.3202V98.4418C86.624 101.386 84.2288 103.781 81.2846 103.781H48.4009V90.1753C48.4009 89.5497 48.1231 88.9561 47.6426 88.5553C47.162 88.1546 46.528 87.9877 45.9127 88.1002L45.785 88.1233C44.516 88.3556 43.2198 88.0154 42.2293 87.1895C41.2383 86.3637 40.6698 85.1502 40.6698 83.8588C40.6698 82.5687 41.2381 81.355 42.2293 80.529C43.2202 79.7027 44.516 79.3621 45.7863 79.5947L45.9127 79.6177C46.5275 79.7297 47.1618 79.5633 47.6426 79.1625C48.1231 78.7617 48.4009 78.1684 48.4009 77.5425V65.5577H59.7236C59.5506 67.8316 60.2726 70.0819 61.7663 71.8472C63.4209 73.8028 65.8315 74.9056 68.3598 74.8661C70.879 74.8294 73.2419 73.6906 74.8425 71.7417C76.2742 69.9985 76.9513 67.7816 76.7528 65.5577H86.624V71.0859C86.6238 72.2509 87.5684 73.1953 88.7332 73.1953ZM5.95898 28.4557C5.95898 25.5116 8.35439 23.1162 11.2984 23.1162H44.1821V36.5911C44.1821 37.217 44.4599 37.8103 44.9407 38.2111C45.4214 38.6117 46.0552 38.7781 46.6708 38.6661L46.7971 38.6431C46.7971 38.6431 46.7975 38.6429 46.7978 38.6429C48.0665 38.4109 49.363 38.7511 50.3539 39.5771C51.3449 40.4034 51.9132 41.6169 51.9132 42.907C51.9132 44.1971 51.3449 45.411 50.3539 46.2371C49.363 47.0631 48.067 47.4038 46.798 47.1717L46.6712 47.1485C46.0555 47.0359 45.4216 47.2025 44.9409 47.6033C44.4601 48.0041 44.1821 48.5977 44.1821 49.2235V61.3394H35.1312C34.0968 57.7644 30.8064 55.1867 26.9133 55.1867C23.0202 55.1867 19.73 57.7644 18.6956 61.3394H5.95898V28.4557ZM39.528 77.2885C37.5726 78.9185 36.4511 81.3134 36.4511 83.8603C36.4511 86.4059 37.5726 88.8007 39.528 90.4306C40.8672 91.5469 42.4889 92.2136 44.1821 92.3756V103.781H11.2984C8.35439 103.781 5.95898 101.386 5.95898 98.4418V65.5581H20.4734C21.6027 65.5581 22.5317 64.6686 22.5809 63.5405C22.6817 61.2219 24.5848 59.4057 26.9135 59.4057C29.2421 59.4057 31.1453 61.2219 31.2462 63.5405C31.2953 64.6688 32.2243 65.5581 33.3536 65.5581H44.1823V75.3431C42.4885 75.5053 40.867 76.1723 39.528 77.2885Z" fill="#508BE2"/>
<path d="M88.733 83.702C87.8495 83.702 87.0474 83.1331 86.7487 82.3031C86.4553 81.4878 86.7063 80.5449 87.3684 79.9849C88.0605 79.3993 89.0757 79.3261 89.8461 79.8027C90.5848 80.2598 90.9727 81.1539 90.8022 82.0061C90.6075 82.9802 89.7256 83.702 88.733 83.702Z" fill="#508BE2"/>
</g>
<defs>
<clipPath id="clip0">
<rect width="108" height="108" fill="white"/>
</clipPath>
</defs>
</svg>
